<?xml version="1.0" encoding="UTF-8"?>
<svg width="838px" height="521px" viewBox="0 0 838 521" version="1.1" xmlns="http://www.w3.org/2000/svg" xmlns:xlink="http://www.w3.org/1999/xlink">
    <!-- Generator: Sketch 48.2 (47327) - http://www.bohemiancoding.com/sketch -->
    <title>Artboard Copy 13</title>
    <desc>Created with Sketch.</desc>
    <defs>
        <linearGradient x1="50%" y1="100%" x2="50%" y2="0%" id="linearGradient-1">
            <stop stop-color="#68E0CF" offset="0%"></stop>
            <stop stop-color="#209CFF" offset="100%"></stop>
        </linearGradient>
    </defs>
    <g id="Logo" stroke="none" stroke-width="1" fill="none" fill-rule="evenodd">
        <g id="Artboard-Copy-13">
            <g id="Group" transform="translate(273.000000, 32.000000)">
                <circle id="Oval" fill="url(#linearGradient-1)" cx="146.5" cy="146.5" r="146.5"></circle>
                <path d="M92.5638852,86.3157895 L112.547226,86.3157895 C113.438745,86.3157895 113.762031,86.4086151 114.087957,86.5829222 C114.413883,86.7572293 114.669671,87.0130178 114.843978,87.3389438 C115.018285,87.6648697 115.111111,87.9881559 115.111111,88.8796747 L115.111111,233.436115 C115.111111,234.327634 115.018285,234.65092 114.843978,234.976846 C114.669671,235.302772 114.413883,235.55856 114.087957,235.732867 C113.762031,235.907174 113.438745,236 112.547226,236 L92.5638852,236 C91.6723665,236 91.3490802,235.907174 91.0231543,235.732867 C90.6972284,235.55856 90.4414398,235.302772 90.2671327,234.976846 C90.0928256,234.65092 90,234.327634 90,233.436115 L90,88.8796747 C90,87.9881559 90.0928256,87.6648697 90.2671327,87.3389438 C90.4414398,87.0130178 90.6972284,86.7572293 91.0231543,86.5829222 C91.3490802,86.4086151 91.6723665,86.3157895 92.5638852,86.3157895 Z M136.50833,101.473684 L156.49167,101.473684 C157.383189,101.473684 157.706475,101.56651 158.032401,101.740817 C158.358327,101.915124 158.614116,102.170913 158.788423,102.496839 C158.96273,102.822764 159.055556,103.146051 159.055556,104.037569 L159.055556,233.436115 C159.055556,234.327634 158.96273,234.65092 158.788423,234.976846 C158.614116,235.302772 158.358327,235.55856 158.032401,235.732867 C157.706475,235.907174 157.383189,236 156.49167,236 L136.50833,236 C135.616811,236 135.293525,235.907174 134.967599,235.732867 C134.641673,235.55856 134.385884,235.302772 134.211577,234.976846 C134.03727,234.65092 133.944444,234.327634 133.944444,233.436115 L133.944444,104.037569 C133.944444,103.146051 134.03727,102.822764 134.211577,102.496839 C134.385884,102.170913 134.641673,101.915124 134.967599,101.740817 C135.293525,101.56651 135.616811,101.473684 136.50833,101.473684 Z M180.452774,86.3157895 L200.436115,86.3157895 C201.327634,86.3157895 201.65092,86.4086151 201.976846,86.5829222 C202.302772,86.7572293 202.55856,87.0130178 202.732867,87.3389438 C202.907174,87.6648697 203,87.9881559 203,88.8796747 L203,233.436115 C203,234.327634 202.907174,234.65092 202.732867,234.976846 C202.55856,235.302772 202.302772,235.55856 201.976846,235.732867 C201.65092,235.907174 201.327634,236 200.436115,236 L180.452774,236 C179.561255,236 179.237969,235.907174 178.912043,235.732867 C178.586117,235.55856 178.330329,235.302772 178.156022,234.976846 C177.981715,234.65092 177.888889,234.327634 177.888889,233.436115 L177.888889,88.8796747 C177.888889,87.9881559 177.981715,87.6648697 178.156022,87.3389438 C178.330329,87.0130178 178.586117,86.7572293 178.912043,86.5829222 C179.237969,86.4086151 179.561255,86.3157895 180.452774,86.3157895 Z M92,56 L201,56 C202.104569,56 203,56.8954305 203,58 L203,76.7368421 C203,77.8414116 202.104569,78.7368421 201,78.7368421 L92,78.7368421 C90.8954305,78.7368421 90,77.8414116 90,76.7368421 L90,58 C90,56.8954305 90.8954305,56 92,56 Z" id="Combined-Shape" fill="#FFFFFF"></path>
            </g>
            <text id="MATCH-TRANSITION" font-family="HelveticaNeue-Bold, Helvetica Neue" font-size="30" font-weight="bold" fill="#333333">
                <tspan x="270.015" y="386">MATCH TRANSITION</tspan>
            </text>
            <text id="Custom-iOS-Modal-Tra" font-family="HelveticaNeue-Light, Helvetica Neue" font-size="36" font-weight="300" fill="#888888">
                <tspan x="76.006" y="482">Custom iOS Modal Transition written in Swift</tspan>
            </text>
        </g>
    </g>
</svg>