<?xml version="1.0" encoding="UTF-8"?>
<svg width="838px" height="521px" viewBox="0 0 838 521" version="1.1" xmlns="http://www.w3.org/2000/svg" xmlns:xlink="http://www.w3.org/1999/xlink">
    <!-- Generator: Sketch 48.2 (47327) - http://www.bohemiancoding.com/sketch -->
    <title>Artboard Copy 27</title>
    <desc>Created with Sketch.</desc>
    <defs>
        <linearGradient x1="50%" y1="100%" x2="50%" y2="0%" id="linearGradient-1">
            <stop stop-color="#68E0CF" offset="0%"></stop>
            <stop stop-color="#209CFF" offset="100%"></stop>
        </linearGradient>
        <linearGradient x1="50%" y1="-24.5956563%" x2="50%" y2="100%" id="linearGradient-2">
            <stop stop-color="#FFFFFF" stop-opacity="0.4" offset="0%"></stop>
            <stop stop-color="#FFFFFF" stop-opacity="0.8" offset="100%"></stop>
        </linearGradient>
        <path d="M15.2760734,0.960303716 C20.7385914,4.61726882 27.3077327,6.75 34.375,6.75 C38.4736314,6.75 42.4047246,6.03268351 46.0495878,4.71674233 C56.1190397,15.9397436 70.7350142,23 87,23 C93.8406284,23 100.389576,21.7511649 106.43129,19.4690467 C108.737387,25.5383794 110,32.1217402 110,39 C110,39 0,39 0,39 C0,24.2405351 5.81372279,10.838938 15.2760785,0.960298369 Z" id="path-3"></path>
        <linearGradient x1="50%" y1="0%" x2="50%" y2="134.157372%" id="linearGradient-5">
            <stop stop-color="#FFFFFF" stop-opacity="0.25" offset="0%"></stop>
            <stop stop-color="#FFFFFF" offset="100%"></stop>
        </linearGradient>
        <linearGradient x1="50%" y1="0%" x2="50%" y2="100%" id="linearGradient-6">
            <stop stop-color="#FFFFFF" stop-opacity="0.25" offset="0%"></stop>
            <stop stop-color="#FFFFFF" stop-opacity="0.8" offset="100%"></stop>
        </linearGradient>
    </defs>
    <g id="Logo" stroke="none" stroke-width="1" fill="none" fill-rule="evenodd">
        <g id="Artboard-Copy-27">
            <g id="Group" transform="translate(273.000000, 32.000000)" fill="url(#linearGradient-1)">
                <circle id="Oval" cx="146.5" cy="146.5" r="146.5"></circle>
            </g>
            <text id="MATCH-TRANSITION" font-family="HelveticaNeue-Bold, Helvetica Neue" font-size="30" font-weight="bold" fill="#333333">
                <tspan x="270.015" y="386">MATCH TRANSITION</tspan>
            </text>
            <text id="Custom-iOS-Modal-Tra" font-family="HelveticaNeue-Light, Helvetica Neue" font-size="36" font-weight="300" fill="#888888">
                <tspan x="76.006" y="482">Custom iOS Modal Transition written in Swift</tspan>
            </text>
            <g id="Oval-3" transform="translate(364.000000, 118.000000)">
                <mask id="mask-4" fill="white">
                    <use xlink:href="#path-3"></use>
                </mask>
                <use id="Combined-Shape" fill="url(#linearGradient-2)" xlink:href="#path-3"></use>
            </g>
            <path d="M474,157 C474,126.624339 449.375661,102 419,102 C388.624339,102 364,126.624339 364,157 C364,157 474,157 474,157 Z" id="Mask" fill="url(#linearGradient-5)" opacity="0.6171875"></path>
            <rect id="Rectangle-3" fill="url(#linearGradient-6)" opacity="0.624377264" x="369" y="165" width="8" height="72" rx="2"></rect>
            <rect id="Rectangle-3-Copy-2" fill="url(#linearGradient-6)" opacity="0.624377264" x="461" y="165" width="8" height="72" rx="2"></rect>
            <polygon id="M" fill="url(#linearGradient-6)" opacity="0.624377264" points="393 165 407.944083 165 419.236671 198.20156 430.055917 165 445 165 445 213.280884 435.059818 213.280884 435.059818 179.06502 423.091027 213.280884 414.908973 213.280884 403.075423 179.403121 402.940182 213.280884 393 213.280884"></polygon>
        </g>
    </g>
</svg>