<?xml version="1.0" encoding="UTF-8"?>
<svg width="1226px" height="1995px" viewBox="0 0 1226 1995" version="1.1" xmlns="http://www.w3.org/2000/svg" xmlns:xlink="http://www.w3.org/1999/xlink">
    <!-- Generator: Sketch 48.2 (47327) - http://www.bohemiancoding.com/sketch -->
    <title>iPhone 8 Copy</title>
    <desc>Created with Sketch.</desc>
    <defs>
        <linearGradient x1="50%" y1="0%" x2="50%" y2="100%" id="linearGradient-1">
            <stop stop-color="#ABB2C4" stop-opacity="0.23864923" offset="0%"></stop>
            <stop stop-color="#737A91" stop-opacity="0.331634964" offset="100%"></stop>
        </linearGradient>
        <filter x="-15.1%" y="-8.5%" width="130.2%" height="117.0%" filterUnits="objectBoundingBox" id="filter-2">
            <feGaussianBlur stdDeviation="50" in="SourceGraphic"></feGaussianBlur>
        </filter>
        <path d="M910,414 L926,414 C929.865993,414 933,417.134007 933,421 L933,529 C933,532.865993 929.865993,536 926,536 L910,536 C906.134007,536 903,532.865993 903,529 L903,421 C903,417.134007 906.134007,414 910,414 Z M90,287 L106,287 C109.865993,287 113,290.134007 113,294 L113,348 C113,351.865993 109.865993,355 106,355 L90,355 C86.1340068,355 83,351.865993 83,348 L83,294 C83,290.134007 86.1340068,287 90,287 Z M90,414 L106,414 C109.865993,414 113,417.134007 113,421 L113,529 C113,532.865993 109.865993,536 106,536 L90,536 C86.1340068,536 83,532.865993 83,529 L83,421 C83,417.134007 86.1340068,414 90,414 Z M90,570 L106,570 C109.865993,570 113,573.134007 113,577 L113,685 C113,688.865993 109.865993,692 106,692 L90,692 C86.1340068,692 83,688.865993 83,685 L83,577 C83,573.134007 86.1340068,570 90,570 Z" id="path-3"></path>
        <filter x="-24.7%" y="-38.5%" width="149.4%" height="203.7%" filterUnits="objectBoundingBox" id="filter-4">
            <feMorphology radius="3" operator="dilate" in="SourceAlpha" result="shadowSpreadOuter1"></feMorphology>
            <feOffset dx="0" dy="54" in="shadowSpreadOuter1" result="shadowOffsetOuter1"></feOffset>
            <feGaussianBlur stdDeviation="60" in="shadowOffsetOuter1" result="shadowBlurOuter1"></feGaussianBlur>
            <feComposite in="shadowBlurOuter1" in2="SourceAlpha" operator="out" result="shadowBlurOuter1"></feComposite>
            <feColorMatrix values="0 0 0 0 0   0 0 0 0 0   0 0 0 0 0  0 0 0 0.132840806 0" type="matrix" in="shadowBlurOuter1"></feColorMatrix>
        </filter>
        <rect id="path-5" x="95" y="57" width="816" height="1645" rx="100"></rect>
        <filter x="-1.0%" y="-0.5%" width="102.1%" height="101.0%" filterUnits="objectBoundingBox" id="filter-6">
            <feGaussianBlur stdDeviation="5" in="SourceAlpha" result="shadowBlurInner1"></feGaussianBlur>
            <feOffset dx="0" dy="-2" in="shadowBlurInner1" result="shadowOffsetInner1"></feOffset>
            <feComposite in="shadowOffsetInner1" in2="SourceAlpha" operator="arithmetic" k2="-1" k3="1" result="shadowInnerInner1"></feComposite>
            <feColorMatrix values="0 0 0 0 0.9506   0 0 0 0 0.96334   0 0 0 0 0.98  0 0 0 1 0" type="matrix" in="shadowInnerInner1"></feColorMatrix>
        </filter>
        <path d="M520,1673 C545.957383,1673 567,1650.8381 567,1623.5 C567,1596.1619 545.957383,1574 520,1574 C494.042617,1574 473,1596.1619 473,1623.5 C473,1650.8381 494.042617,1673 520,1673 Z" id="path-7"></path>
        <filter x="-22.3%" y="-21.2%" width="144.7%" height="142.4%" filterUnits="objectBoundingBox" id="filter-8">
            <feOffset dx="0" dy="0" in="SourceAlpha" result="shadowOffsetOuter1"></feOffset>
            <feGaussianBlur stdDeviation="7" in="shadowOffsetOuter1" result="shadowBlurOuter1"></feGaussianBlur>
            <feColorMatrix values="0 0 0 0 1   0 0 0 0 1   0 0 0 0 1  0 0 0 0.187216938 0" type="matrix" in="shadowBlurOuter1"></feColorMatrix>
        </filter>
        <linearGradient x1="0%" y1="0%" x2="100%" y2="100%" id="linearGradient-9">
            <stop stop-color="#333333" offset="0%"></stop>
            <stop stop-color="#FEFEFE" offset="100%"></stop>
        </linearGradient>
        <ellipse id="path-10" cx="7.07920792" cy="6.5" rx="7.07920792" ry="6.5"></ellipse>
        <filter x="-31.8%" y="-34.6%" width="163.6%" height="169.2%" filterUnits="objectBoundingBox" id="filter-11">
            <feGaussianBlur stdDeviation="2.5" in="SourceAlpha" result="shadowBlurInner1"></feGaussianBlur>
            <feOffset dx="-2" dy="-2" in="shadowBlurInner1" result="shadowOffsetInner1"></feOffset>
            <feComposite in="shadowOffsetInner1" in2="SourceAlpha" operator="arithmetic" k2="-1" k3="1" result="shadowInnerInner1"></feComposite>
            <feColorMatrix values="0 0 0 0 0   0 0 0 0 0   0 0 0 0 0  0 0 0 0.344061368 0" type="matrix" in="shadowInnerInner1"></feColorMatrix>
        </filter>
        <rect id="path-12" x="32.6732673" y="3" width="77.3267327" height="8" rx="4"></rect>
        <filter x="-5.2%" y="-50.0%" width="110.3%" height="200.0%" filterUnits="objectBoundingBox" id="filter-13">
            <feGaussianBlur stdDeviation="2" in="SourceAlpha" result="shadowBlurInner1"></feGaussianBlur>
            <feOffset dx="2" dy="2" in="shadowBlurInner1" result="shadowOffsetInner1"></feOffset>
            <feComposite in="shadowOffsetInner1" in2="SourceAlpha" operator="arithmetic" k2="-1" k3="1" result="shadowInnerInner1"></feComposite>
            <feColorMatrix values="0 0 0 0 0   0 0 0 0 0   0 0 0 0 0  0 0 0 0.344061368 0" type="matrix" in="shadowInnerInner1"></feColorMatrix>
        </filter>
    </defs>
    <g id="Page-1" stroke="none" stroke-width="1" fill="none" fill-rule="evenodd">
        <g id="iPhone-8-Copy" transform="translate(117.000000, 112.000000)">
            <rect id="shadow-copy-2" fill="url(#linearGradient-1)" opacity="0.570595562" filter="url(#filter-2)" x="0" y="0" width="992" height="1766" rx="100"></rect>
            <g id="Buttons">
                <use fill="black" fill-opacity="1" filter="url(#filter-4)" xlink:href="#path-3"></use>
                <use fill="#333333" fill-rule="evenodd" xlink:href="#path-3"></use>
                <path stroke-opacity="0.04" stroke="#000000" stroke-width="3" d="M910,412.5 L926,412.5 C930.69442,412.5 934.5,416.30558 934.5,421 L934.5,529 C934.5,533.69442 930.69442,537.5 926,537.5 L910,537.5 C905.30558,537.5 901.5,533.69442 901.5,529 L901.5,421 C901.5,416.30558 905.30558,412.5 910,412.5 Z M90,285.5 L106,285.5 C110.69442,285.5 114.5,289.30558 114.5,294 L114.5,348 C114.5,352.69442 110.69442,356.5 106,356.5 L90,356.5 C85.3055796,356.5 81.5,352.69442 81.5,348 L81.5,294 C81.5,289.30558 85.3055796,285.5 90,285.5 Z M90,412.5 L106,412.5 C110.69442,412.5 114.5,416.30558 114.5,421 L114.5,529 C114.5,533.69442 110.69442,537.5 106,537.5 L90,537.5 C85.3055796,537.5 81.5,533.69442 81.5,529 L81.5,421 C81.5,416.30558 85.3055796,412.5 90,412.5 Z M90,568.5 L106,568.5 C110.69442,568.5 114.5,572.30558 114.5,577 L114.5,685 C114.5,689.69442 110.69442,693.5 106,693.5 L90,693.5 C85.3055796,693.5 81.5,689.69442 81.5,685 L81.5,577 C81.5,572.30558 85.3055796,568.5 90,568.5 Z"></path>
            </g>
            <g id="Outer_Body">
                <use fill="#333333" fill-rule="evenodd" xlink:href="#path-5"></use>
                <use fill="black" fill-opacity="1" filter="url(#filter-6)" xlink:href="#path-5"></use>
                <use stroke-opacity="0.03" stroke="#333333" stroke-width="5" xlink:href="#path-5"></use>
            </g>
            <g id="home">
                <use fill="black" fill-opacity="1" filter="url(#filter-8)" xlink:href="#path-7"></use>
                <use fill="#333333" fill-rule="evenodd" xlink:href="#path-7"></use>
            </g>
            <path d="M508,115 C512.418278,115 516,110.970563 516,106 C516,101.029437 512.418278,97 508,97 C503.581722,97 500,101.029437 500,106 C500,110.970563 503.581722,115 508,115 Z" id="camera" fill="url(#linearGradient-9)"></path>
            <g id="sensor-camera-copy" opacity="0.6" transform="translate(443.000000, 133.000000)">
                <g id="Group" opacity="0.75">
                    <g id="Oval">
                        <use fill="#BFC0C5" fill-rule="evenodd" xlink:href="#path-10"></use>
                        <use fill="black" fill-opacity="1" filter="url(#filter-11)" xlink:href="#path-10"></use>
                        <ellipse stroke-opacity="0.568331069" stroke="#7D7D7D" stroke-width="1" cx="7.07920792" cy="6.5" rx="7.57920792" ry="7"></ellipse>
                    </g>
                </g>
                <g id="Rectangle-2">
                    <use fill="#BFC0C5" fill-rule="evenodd" xlink:href="#path-12"></use>
                    <use fill="black" fill-opacity="1" filter="url(#filter-13)" xlink:href="#path-12"></use>
                    <rect stroke-opacity="0.568331069" stroke="#7D7D7D" stroke-width="1" x="32.1732673" y="2.5" width="78.3267327" height="9" rx="4.5"></rect>
                </g>
            </g>
        </g>
    </g>
</svg>